<svg xmlns="http://www.w3.org/2000/svg" xmlns:xlink="http://www.w3.org/1999/xlink" xmlns:lucid="lucid" width="1962" height="1062"><g transform="translate(-399 381)" lucid:page-tab-id="0_0"><path d="M0-500h2500v1500H0z" fill="#fff"/><path d="M1160-374a6 6 0 0 1 6-6h1188a6 6 0 0 1 6 6V674a6 6 0 0 1-6 6H1166a6 6 0 0 1-6-6z" stroke="#3a414a" stroke-width="2" fill="#f7f4e4"/><use xlink:href="#a" transform="matrix(1,0,0,1,1168,-372) translate(541.3118489583334 21.52777777777778)"/><path d="M400-334a6 6 0 0 1 6-6h196.57a6 6 0 0 1 6 6v68a6 6 0 0 1-6 6H406a6 6 0 0 1-6-6z" stroke="#fc9432" stroke-width="2" fill="#ffdda6"/><use xlink:href="#b" transform="matrix(1,0,0,1,400,-340) translate(78.97331597222224 49.02777777777778)"/><path d="M504.3-258.5v5m0 5.03v10.02m0 5v10.04m0 5v10.03m0 5v10.03m0 5.02v10.02m0 5v10.04m0 5v10.04m0 5v10.03m0 5.03v10.02m0 5.02v10.02m0 5v10.03m0 5v10.03m0 5.02V-58m0 5.02v10.02m0 5v10.04m0 5v10.04m0 5V2.16m0 5.02V17.2m0 5v10.03m0 5v10.04m0 5V62.3m0 5.02v10.02m0 5.02v10.02m0 5v10.04m0 5v10.04m0 5v10.03m0 5v10.03m0 5v10.04m0 5v10.04m0 5.02v10.03m0 5v10.03m0 5v10.04m0 5v10.04m0 5v10.04m0 5v10.03m0 5.02v10.02m0 5v10.04m0 5.02v10.03m0 5V333m0 5.02v10.02m0 5.02v10.02m0 5v10.04m0 5v10.03m0 5.02v10.02m0 5.02v10m0 5.02v10.03m0 5v10.04m0 5v10.02m0 5.02v10.02m0 5v10.04m0 5v10.04m0 5v10.03m0 5.02v5" stroke="#3a414a" fill="none"/><path d="M504.76-258.5h-.95v-.5h.96zM504.76 539h-.95v-.5h.96z" stroke="#3a414a" stroke-width=".05" fill="#3a414a"/><path d="M921.43-258.5v5m0 5.03v10.02m0 5v10.04m0 5v10.03m0 5v10.03m0 5.02v10.02m0 5v10.04m0 5v10.04m0 5v10.03m0 5.03v10.02m0 5.02v10.02m0 5v10.03m0 5v10.03m0 5.02V-58m0 5.02v10.02m0 5v10.04m0 5v10.04m0 5V2.16m0 5.02V17.2m0 5v10.03m0 5v10.04m0 5V62.3m0 5.02v10.02m0 5.02v10.02m0 5v10.04m0 5v10.04m0 5v10.03m0 5v10.03m0 5v10.04m0 5v10.04m0 5.02v10.03m0 5v10.03m0 5v10.04m0 5v10.04m0 5v10.04m0 5v10.03m0 5.02v10.02m0 5v10.04m0 5.02v10.03m0 5V333m0 5.02v10.02m0 5.02v10.02m0 5v10.04m0 5v10.03m0 5.02v10.02m0 5.02v10m0 5.02v10.03m0 5v10.04m0 5v10.02m0 5.02v10.02m0 5v10.04m0 5v10.04m0 5v10.03m0 5.02v5" stroke="#3a414a" fill="none"/><path d="M921.9-258.5h-.95v-.5h.95zM921.9 539h-.95v-.5h.95z" stroke="#3a414a" stroke-width=".05" fill="#3a414a"/><path d="M1338.57-258.5v5m0 5.03v10.02m0 5v10.04m0 5v10.03m0 5v10.03m0 5.02v10.02m0 5v10.04m0 5v10.04m0 5v10.03m0 5.03v10.02m0 5.02v10.02m0 5v10.03m0 5v10.03m0 5.02V-58m0 5.02v10.02m0 5v10.04m0 5v10.04m0 5V2.16m0 5.02V17.2m0 5v10.03m0 5v10.04m0 5V62.3m0 5.02v10.02m0 5.02v10.02m0 5v10.04m0 5v10.04m0 5v10.03m0 5v10.03m0 5v10.04m0 5v10.04m0 5.02v10.03m0 5v10.03m0 5v10.04m0 5v10.04m0 5v10.04m0 5v10.03m0 5.02v10.02m0 5v10.04m0 5.02v10.03m0 5V333m0 5.02v10.02m0 5.02v10.02m0 5v10.04m0 5v10.03m0 5.02v10.02m0 5.02v10m0 5.02v10.03m0 5v10.04m0 5v10.02m0 5.02v10.02m0 5v10.04m0 5v10.04m0 5v10.03m0 5.02v5" stroke="#3a414a" fill="none"/><path d="M1339.05-258.5h-.95v-.5h.95zM1339.05 539h-.95v-.5h.95z" stroke="#3a414a" stroke-width=".05" fill="#3a414a"/><path d="M1755.7-258.5v5m0 5.03v10.02m0 5v10.04m0 5v10.03m0 5v10.03m0 5.02v10.02m0 5v10.04m0 5v10.04m0 5v10.03m0 5.03v10.02m0 5.02v10.02m0 5v10.03m0 5v10.03m0 5.02V-58m0 5.02v10.02m0 5v10.04m0 5v10.04m0 5V2.16m0 5.02V17.2m0 5v10.03m0 5v10.04m0 5V62.3m0 5.02v10.02m0 5.02v10.02m0 5v10.04m0 5v10.04m0 5v10.03m0 5v10.03m0 5v10.04m0 5v10.04m0 5.02v10.03m0 5v10.03m0 5v10.04m0 5v10.04m0 5v10.04m0 5v10.03m0 5.02v10.02m0 5v10.04m0 5.02v10.03m0 5V333m0 5.02v10.02m0 5.02v10.02m0 5v10.04m0 5v10.03m0 5.02v10.02m0 5.02v10m0 5.02v10.03m0 5v10.04m0 5v10.02m0 5.02v10.02m0 5v10.04m0 5v10.04m0 5v10.03m0 5.02v5" stroke="#3a414a" fill="none"/><path d="M1756.2-258.5h-.96v-.5h.95zM1756.2 539h-.96v-.5h.95z" stroke="#3a414a" stroke-width=".05" fill="#3a414a"/><path d="M400 546a6 6 0 0 1 6-6h196.57a6 6 0 0 1 6 6v68a6 6 0 0 1-6 6H406a6 6 0 0 1-6-6z" stroke="#fc9432" stroke-width="2" fill="#ffdda6"/><use xlink:href="#b" transform="matrix(1,0,0,1,400,540) translate(78.97331597222224 49.02777777777778)"/><path d="M817.14-334a6 6 0 0 1 6-6h196.57a6 6 0 0 1 6 6v68a6 6 0 0 1-6 6H823.15a6 6 0 0 1-6-6z" stroke="#fc9432" stroke-width="2" fill="#ffdda6"/><use xlink:href="#c" transform="matrix(1,0,0,1,817.1428571428571,-340) translate(74.32921875000001 49.02777777777778)"/><path d="M817.14 546a6 6 0 0 1 6-6h196.57a6 6 0 0 1 6 6v68a6 6 0 0 1-6 6H823.15a6 6 0 0 1-6-6z" stroke="#fc9432" stroke-width="2" fill="#ffdda6"/><use xlink:href="#c" transform="matrix(1,0,0,1,817.1428571428571,540) translate(74.32921875000001 49.02777777777778)"/><path d="M1234.3-334a6 6 0 0 1 6-6h196.56a6 6 0 0 1 6 6v68a6 6 0 0 1-6 6H1240.3a6 6 0 0 1-6-6z" stroke="#fc9432" stroke-width="2" fill="#ffdda6"/><use xlink:href="#d" transform="matrix(1,0,0,1,1234.2857142857144,-340) translate(69.85330729166667 49.02777777777778)"/><path d="M1234.3 546a6 6 0 0 1 6-6h196.56a6 6 0 0 1 6 6v68a6 6 0 0 1-6 6H1240.3a6 6 0 0 1-6-6z" stroke="#fc9432" stroke-width="2" fill="#ffdda6"/><use xlink:href="#d" transform="matrix(1,0,0,1,1234.2857142857144,540) translate(69.85330729166667 49.02777777777778)"/><path d="M1651.43-334a6 6 0 0 1 6-6H1854a6 6 0 0 1 6 6v68a6 6 0 0 1-6 6h-196.57a6 6 0 0 1-6-6z" stroke="#fc9432" stroke-width="2" fill="#ffdda6"/><use xlink:href="#e" transform="matrix(1,0,0,1,1651.4285714285716,-340) translate(68.713984375 49.02777777777778)"/><path d="M1651.43 546a6 6 0 0 1 6-6H1854a6 6 0 0 1 6 6v68a6 6 0 0 1-6 6h-196.57a6 6 0 0 1-6-6z" stroke="#fc9432" stroke-width="2" fill="#ffdda6"/><use xlink:href="#e" transform="matrix(1,0,0,1,1651.4285714285716,540) translate(68.713984375 49.02777777777778)"/><path d="M504.8-149.42h400.24M504.8-149.42h-.5" stroke="#3a414a" fill="none"/><path d="M919.8-149.42l-14.25 4.64v-9.27z" stroke="#3a414a" fill="#3a414a"/><use xlink:href="#f" transform="matrix(1,0,0,1,653.6280094945878,-174.9214644021072) translate(0 17.21640914091409)"/><path d="M921.93-36.52h400.26M921.94-36.52h-.5" stroke="#3a414a" fill="none"/><path d="M1336.95-36.52l-14.26 4.64v-9.27z" stroke="#3a414a" fill="#3a414a"/><use xlink:href="#g" transform="matrix(1,0,0,1,979.5126172773527,-62.02227552609331) translate(0 17.21640914091409)"/><path d="M1339.07 61.52H1420v75.77h-65.05M1339.08 61.52h-.5" stroke="#3a414a" fill="none"/><path d="M1340.2 137.3l14.25-4.65v9.27z" stroke="#3a414a" fill="#3a414a"/><use xlink:href="#h" transform="matrix(1,0,0,1,1428,88.6539839055512) translate(0 17.21640914091409)"/><path d="M1339.07 220h400.26M1339.08 220h-.5" stroke="#3a414a" fill="none"/><path d="M1754.1 220l-14.27 4.63v-9.26z" stroke="#3a414a" fill="#3a414a"/><use xlink:href="#i" transform="matrix(1,0,0,1,1492.8295986685723,194.49684382500757) translate(0 17.21640914091409)"/><path d="M2068.57-334a6 6 0 0 1 6-6h196.57a6 6 0 0 1 6 6v68a6 6 0 0 1-6 6h-196.57a6 6 0 0 1-6-6z" stroke="#fc9432" stroke-width="2" fill="#ffdda6"/><use xlink:href="#j" transform="matrix(1,0,0,1,2068.5714285714284,-340) translate(52.82314236111111 49.02777777777778)"/><path d="M2068.57 546a6 6 0 0 1 6-6h196.57a6 6 0 0 1 6 6v68a6 6 0 0 1-6 6h-196.57a6 6 0 0 1-6-6z" stroke="#fc9432" stroke-width="2" fill="#ffdda6"/><use xlink:href="#j" transform="matrix(1,0,0,1,2068.5714285714284,540) translate(52.82314236111111 49.02777777777778)"/><path d="M2172.86-258.5v5m0 5.03v10.02m0 5v10.04m0 5v10.03m0 5v10.03m0 5.02v10.02m0 5v10.04m0 5v10.04m0 5v10.03m0 5.03v10.02m0 5.02v10.02m0 5v10.03m0 5v10.03m0 5.02V-58m0 5.02v10.02m0 5v10.04m0 5v10.04m0 5V2.16m0 5.02V17.2m0 5v10.03m0 5v10.04m0 5V62.3m0 5.02v10.02m0 5.02v10.02m0 5v10.04m0 5v10.04m0 5v10.03m0 5v10.03m0 5v10.04m0 5v10.04m0 5.02v10.03m0 5v10.03m0 5v10.04m0 5v10.04m0 5v10.04m0 5v10.03m0 5.02v10.02m0 5v10.04m0 5.02v10.03m0 5V333m0 5.02v10.02m0 5.02v10.02m0 5v10.04m0 5v10.03m0 5.02v10.02m0 5.02v10m0 5.02v10.03m0 5v10.04m0 5v10.02m0 5.02v10.02m0 5v10.04m0 5v10.04m0 5v10.03m0 5.02v5" stroke="#3a414a" fill="none"/><path d="M2173.33-258.5h-.95v-.5h.95zM2173.33 539h-.95v-.5h.95z" stroke="#3a414a" stroke-width=".05" fill="#3a414a"/><path d="M1756.2 280h400.27M1756.23 280h-.52" stroke="#3a414a" fill="none"/><path d="M2171.24 280l-14.27 4.63v-9.26z" stroke="#3a414a" fill="#3a414a"/><use xlink:href="#k" transform="matrix(1,0,0,1,1887.566826678782,254.49684382500757) translate(0 17.21640914091409)"/><path d="M2172.36 371.57H937.8M2172.34 371.57h.52" stroke="#3a414a" fill="none"/><path d="M923.05 371.57l14.26-4.63v9.27z" stroke="#3a414a" fill="#3a414a"/><use xlink:href="#l" transform="matrix(1,0,0,1,1491.9488197748549,375.57411214977054) translate(0 17.21640914091409)"/><defs><path d="M783 20c-382 0-661-292-661-764 0-473 279-766 661-766 302 0 548 182 601 489h-190c-42-204-217-313-411-313-268 0-476 208-476 590 0 381 209 588 476 588 195 0 369-110 411-313h190c-52 303-296 489-601 489" id="m"/><path d="M613 24c-304 0-509-231-509-576 0-350 205-580 509-580 305 0 511 230 511 580 0 345-206 576-511 576zm0-161c226 0 329-195 329-415 0-222-103-419-329-419-223 0-326 196-326 419 0 220 103 415 326 415" id="n"/><path d="M338-670V0H158v-1118h173l1 207c72-158 192-221 342-221 226 0 378 139 378 422V0H872v-695c0-172-96-275-252-275-161 0-282 109-282 300" id="o"/><path d="M598-1118v154H368v674c0 100 37 144 132 144 23 0 62-6 92-12L629-6c-37 13-88 20-134 20-193 0-307-107-307-290v-688H20v-154h168v-266h180v266h230" id="p"/><path d="M471 26C259 26 90-98 90-318c0-256 228-303 435-329 202-27 287-16 287-108 0-139-79-219-234-219-161 0-248 86-283 164l-173-57c86-203 278-265 451-265 150 0 419 46 419 395V0H815v-152h-12C765-73 660 26 471 26zm31-159c199 0 310-134 310-271v-155c-30 35-226 55-295 64-131 17-246 59-246 186 0 116 97 176 231 176" id="q"/><path d="M158 0v-1118h180V0H158zm91-1301c-68 0-125-53-125-119s57-119 125-119c69 0 126 53 126 119s-57 119-126 119" id="r"/><path d="M628 24c-324 0-524-230-524-574 0-343 198-582 503-582 237 0 487 146 487 559v75H286c9 234 145 362 343 362 132 0 231-58 273-172l174 48C1024-91 857 24 628 24zM287-650h624c-17-190-120-322-304-322-192 0-309 151-320 322" id="s"/><path d="M158 0v-1118h174v172h12c41-113 157-188 290-188 26 0 70 2 91 3v181c-11-2-60-10-108-10-161 0-279 109-279 260V0H158" id="t"/><g id="a"><use transform="matrix(0.010850694444444444,0,0,0.010850694444444444,0,0)" xlink:href="#m"/><use transform="matrix(0.010850694444444444,0,0,0.010850694444444444,16.23263888888889,0)" xlink:href="#n"/><use transform="matrix(0.010850694444444444,0,0,0.010850694444444444,29.557291666666664,0)" xlink:href="#o"/><use transform="matrix(0.010850694444444444,0,0,0.010850694444444444,42.68663194444444,0)" xlink:href="#p"/><use transform="matrix(0.010850694444444444,0,0,0.010850694444444444,50.065104166666664,0)" xlink:href="#q"/><use transform="matrix(0.010850694444444444,0,0,0.010850694444444444,62.54340277777778,0)" xlink:href="#r"/><use transform="matrix(0.010850694444444444,0,0,0.010850694444444444,67.92534722222221,0)" xlink:href="#o"/><use transform="matrix(0.010850694444444444,0,0,0.010850694444444444,81.05468749999999,0)" xlink:href="#s"/><use transform="matrix(0.010850694444444444,0,0,0.010850694444444444,94.01041666666666,0)" xlink:href="#t"/></g><path d="M180 0v-1490h270l367 940c28 72 75 218 110 339 35-117 81-264 110-339l362-940h271V0h-187c2-448-5-837 7-1287-157 497-311 829-483 1287H842C666-458 514-784 354-1284c12 438 5 843 7 1284H180" id="u"/><g id="b"><use transform="matrix(0.010850694444444444,0,0,0.010850694444444444,0,0)" xlink:href="#u"/><use transform="matrix(0.010850694444444444,0,0,0.010850694444444444,20.07378472222222,0)" xlink:href="#q"/><use transform="matrix(0.010850694444444444,0,0,0.010850694444444444,32.55208333333333,0)" xlink:href="#r"/><use transform="matrix(0.010850694444444444,0,0,0.010850694444444444,37.93402777777777,0)" xlink:href="#o"/></g><path d="M338-1490V0H158v-1490h180" id="v"/><g id="c"><use transform="matrix(0.010850694444444444,0,0,0.010850694444444444,0,0)" xlink:href="#m"/><use transform="matrix(0.010850694444444444,0,0,0.010850694444444444,16.23263888888889,0)" xlink:href="#v"/><use transform="matrix(0.010850694444444444,0,0,0.010850694444444444,21.614583333333336,0)" xlink:href="#r"/><use transform="matrix(0.010850694444444444,0,0,0.010850694444444444,26.99652777777778,0)" xlink:href="#s"/><use transform="matrix(0.010850694444444444,0,0,0.010850694444444444,39.95225694444444,0)" xlink:href="#o"/><use transform="matrix(0.010850694444444444,0,0,0.010850694444444444,53.08159722222222,0)" xlink:href="#p"/></g><path d="M657 26c-323 0-524-166-541-416h195c15 169 171 246 346 246 202 0 356-106 356-265 5-203-294-238-475-293-239-73-380-191-380-389 0-252 224-419 512-419 294 0 499 171 508 396H992c-17-145-151-228-328-228-193 0-321 102-321 242 0 156 175 211 284 241l149 41c160 44 422 134 422 412 0 244-197 432-541 432" id="w"/><path d="M481 0L54-1118h197c107 314 236 620 325 951 87-331 217-637 324-951h197L670 0H481" id="x"/><g id="d"><use transform="matrix(0.010850694444444444,0,0,0.010850694444444444,0,0)" xlink:href="#w"/><use transform="matrix(0.010850694444444444,0,0,0.010850694444444444,14.2578125,0)" xlink:href="#s"/><use transform="matrix(0.010850694444444444,0,0,0.010850694444444444,27.213541666666664,0)" xlink:href="#t"/><use transform="matrix(0.010850694444444444,0,0,0.010850694444444444,35.92664930555555,0)" xlink:href="#x"/><use transform="matrix(0.010850694444444444,0,0,0.010850694444444444,47.98177083333333,0)" xlink:href="#s"/><use transform="matrix(0.010850694444444444,0,0,0.010850694444444444,60.937499999999986,0)" xlink:href="#t"/></g><path d="M180 0v-1490h908v168H370v486h669v168H370v500h727V0H180" id="y"/><path d="M611 442c-248 0-391-105-460-228l146-94c47 65 117 165 314 165 178 0 307-82 307-266v-224h-17C863-141 792-18 576-18c-268 0-472-195-472-546 0-346 197-568 476-568 216 0 288 133 326 193h17v-179h175V29c0 289-215 413-487 413zm-5-620c203 0 314-146 314-390 0-237-108-403-314-403-213 0-319 180-319 403 0 230 109 390 319 390" id="z"/><g id="e"><use transform="matrix(0.010850694444444444,0,0,0.010850694444444444,0,0)" xlink:href="#y"/><use transform="matrix(0.010850694444444444,0,0,0.010850694444444444,13.35720486111111,0)" xlink:href="#o"/><use transform="matrix(0.010850694444444444,0,0,0.010850694444444444,26.48654513888889,0)" xlink:href="#z"/><use transform="matrix(0.010850694444444444,0,0,0.010850694444444444,40.11501736111111,0)" xlink:href="#r"/><use transform="matrix(0.010850694444444444,0,0,0.010850694444444444,45.49696180555556,0)" xlink:href="#o"/><use transform="matrix(0.010850694444444444,0,0,0.010850694444444444,58.62630208333333,0)" xlink:href="#s"/></g><path fill="#3a414a" d="M625 442c-280 0-454-114-503-274l258-72c28 63 97 128 243 128 153 0 246-69 246-216v-206h-23C805-108 717-16 536-16 284-16 81-191 81-561c0-378 208-571 456-571 188 0 280 113 321 202h13v-188h295V-9c0 303-226 451-541 451zm5-686c153 0 240-119 240-319 0-198-86-329-240-329-158 0-241 137-241 329 0 195 85 319 241 319" id="A"/><path fill="#3a414a" d="M440 22C227 22 68-92 68-313c0-250 202-322 422-343 195-21 271-24 271-105 0-95-63-149-175-149-116 0-187 57-211 129l-275-46c57-194 237-305 487-305 240 0 474 108 474 379V0H777v-155h-10C713-51 605 22 440 22zm85-211c140 0 238-93 238-211v-121c-37 26-156 42-222 51-111 16-185 59-185 149 0 87 70 132 169 132" id="B"/><path fill="#3a414a" d="M128 0v-1118h278l12 217c60-163 185-234 319-234 143 0 236 81 288 251 63-172 205-251 359-251 205 0 357 138 357 381V0h-301v-697c0-126-76-187-177-187-114 0-184 79-184 196V0H789v-705c0-109-72-179-174-179-106 0-187 74-187 208V0H128" id="C"/><path fill="#3a414a" d="M633 22C291 22 81-200 81-553c0-345 210-579 537-579 292 0 525 185 525 567v84H378c7 183 109 277 260 277 105 0 184-46 216-132l272 51C1071-99 893 22 633 22zM380-669h474c-15-146-94-237-233-237-143 0-229 99-241 237" id="D"/><path fill="#3a414a" d="M975 0v231H0V0h975" id="E"/><path fill="#3a414a" d="M628 22C291 22 81-210 81-554c0-346 210-578 547-578 265 0 455 142 497 372l-279 52c-25-116-99-188-215-188-160 0-244 139-244 341 0 200 84 341 244 341 116 0 193-74 217-195l279 51C1085-123 896 22 628 22" id="F"/><path fill="#3a414a" d="M428-1490V0H128v-1490h300" id="G"/><path fill="#3a414a" d="M128 0v-1118h300V0H128zm150-1264c-91 0-165-68-165-154 0-85 74-154 165-154 90 0 165 69 165 154 0 86-75 154-165 154" id="H"/><path fill="#3a414a" d="M428-647V0H128v-1118h283l4 231c63-156 176-245 348-245 232 0 384 159 384 421V0H847v-659c0-139-76-222-202-222-128 0-217 86-217 234" id="I"/><path fill="#3a414a" d="M683-1118v229H474v562c0 71 29 104 102 104 23 0 73-7 95-13l43 225C647 9 580 16 520 16 296 16 174-96 174-301v-588H20v-229h154v-266h300v266h209" id="J"/><path fill="#3a414a" d="M169-607c0-330 107-732 258-974h279c-145 311-231 674-231 974 0 262 67 512 231 886H427C258-1 169-307 169-607" id="K"/><path fill="#3a414a" d="M67 279c166-379 230-627 230-886 0-300-86-663-230-974h278c151 241 258 644 258 974 0 302-90 608-258 886H67" id="L"/><g id="f"><use transform="matrix(0.008677625575057506,0,0,0.008677625575057506,0,0)" xlink:href="#A"/><use transform="matrix(0.008677625575057506,0,0,0.008677625575057506,11.228847494124413,0)" xlink:href="#B"/><use transform="matrix(0.008677625575057506,0,0,0.008677625575057506,21.546544302867787,0)" xlink:href="#C"/><use transform="matrix(0.008677625575057506,0,0,0.008677625575057506,37.765026502650265,0)" xlink:href="#D"/><use transform="matrix(0.008677625575057506,0,0,0.008677625575057506,48.351729704220425,0)" xlink:href="#E"/><use transform="matrix(0.008677625575057506,0,0,0.008677625575057506,56.8124146399015,0)" xlink:href="#F"/><use transform="matrix(0.008677625575057506,0,0,0.008677625575057506,67.26895345784578,0)" xlink:href="#G"/><use transform="matrix(0.008677625575057506,0,0,0.008677625575057506,72.0850356520027,0)" xlink:href="#H"/><use transform="matrix(0.008677625575057506,0,0,0.008677625575057506,76.90111784615962,0)" xlink:href="#D"/><use transform="matrix(0.008677625575057506,0,0,0.008677625575057506,87.48782104772978,0)" xlink:href="#I"/><use transform="matrix(0.008677625575057506,0,0,0.008677625575057506,98.5517936559281,0)" xlink:href="#J"/><use transform="matrix(0.008677625575057506,0,0,0.008677625575057506,105.06001283722124,0)" xlink:href="#K"/><use transform="matrix(0.008677625575057506,0,0,0.008677625575057506,111.75913978116562,0)" xlink:href="#L"/></g><path fill="#3a414a" d="M428-647V0H128v-1490h294v586c65-146 175-228 341-228 232 0 385 159 385 421V0H847v-659c0-139-76-222-202-222-128 0-217 86-217 234" id="M"/><path fill="#3a414a" d="M128 0v-1118h290v195h12c54-169 184-238 367-200v268c-27-8-86-15-130-15-138 0-239 95-239 234V0H128" id="N"/><path fill="#3a414a" d="M537 19C279 19 81-185 81-557c0-382 206-575 454-575 190 0 278 113 318 202h10v-560h300V0H868v-179h-15C812-89 719 19 537 19zm92-241c153 0 240-134 240-336 0-203-86-334-240-334-158 0-240 138-240 334 0 197 84 336 240 336" id="O"/><path fill="#3a414a" d="M342-723c-98 0-173-75-173-172s75-172 173-172 173 75 173 172-75 172-173 172zm0 742c-98 0-173-75-173-172s75-172 173-172 173 75 173 172S440 19 342 19" id="P"/><path fill="#3a414a" d="M572 22C302 22 117-98 78-306l279-48c29 105 101 156 224 156 114 0 185-48 185-115 0-118-228-130-337-155-215-49-322-150-322-317 0-215 187-347 470-347 265 0 424 116 466 298l-266 47c-24-76-87-130-196-130-98 0-174 46-174 113 0 56 38 95 144 117l201 40c216 44 320 143 320 302 0 220-207 367-500 367" id="Q"/><path fill="#3a414a" d="M128 418v-1536h295v188h14c41-89 129-202 319-202 248 0 453 193 453 575 0 372-197 576-455 576-183 0-275-108-317-198h-9v597H128zm534-640c156 0 240-139 240-336 0-196-83-334-240-334-154 0-241 131-241 334 0 202 88 336 241 336" id="R"/><path fill="#3a414a" d="M361 0L31-1118h315c68 295 127 523 188 845 63-317 128-551 199-845h276c71 296 131 525 196 846 57-321 119-552 186-846h319L1378 0h-305c-73-261-148-486-204-771C813-484 740-261 666 0H361" id="S"/><path fill="#3a414a" d="M795 20C377 20 94-272 94-743c0-483 302-767 694-767 335 0 593 206 635 500h-310c-42-142-154-229-320-229-230 0-389 177-389 493s154 495 393 495c212 0 340-120 345-311H818v-232h620v186c0 391-269 628-643 628" id="T"/><path fill="#3a414a" d="M681 22C323 22 94-145 85-462h297c10 151 131 226 296 226 163 0 271-77 271-190 0-102-95-149-257-189l-164-41c-252-61-403-188-403-405 0-269 236-449 560-449 330 0 546 183 551 445H941c-11-119-106-188-259-188-156 0-244 72-244 172-3 156 226 185 373 221 250 61 445 186 445 436 0 271-213 446-575 446" id="U"/><path fill="#3a414a" d="M443 0L31-1118h319c90 293 199 572 268 885 66-313 175-593 264-885h315L784 0H443" id="V"/><g id="g"><use transform="matrix(0.008677625575057506,0,0,0.008677625575057506,0,0)" xlink:href="#J"/><use transform="matrix(0.008677625575057506,0,0,0.008677625575057506,6.551607309168416,0)" xlink:href="#M"/><use transform="matrix(0.008677625575057506,0,0,0.008677625575057506,17.615579917366738,0)" xlink:href="#N"/><use transform="matrix(0.008677625575057506,0,0,0.008677625575057506,24.418838368211823,0)" xlink:href="#D"/><use transform="matrix(0.008677625575057506,0,0,0.008677625575057506,35.17909408128313,0)" xlink:href="#B"/><use transform="matrix(0.008677625575057506,0,0,0.008677625575057506,45.4967908900265,0)" xlink:href="#O"/><use transform="matrix(0.008677625575057506,0,0,0.008677625575057506,56.699605507425744,0)" xlink:href="#P"/><use transform="matrix(0.008677625575057506,0,0,0.008677625575057506,62.63510140076508,0)" xlink:href="#P"/><use transform="matrix(0.008677625575057506,0,0,0.008677625575057506,68.57059729410442,0)" xlink:href="#Q"/><use transform="matrix(0.008677625575057506,0,0,0.008677625575057506,78.52383382869537,0)" xlink:href="#R"/><use transform="matrix(0.008677625575057506,0,0,0.008677625575057506,89.90020095759577,0)" xlink:href="#B"/><use transform="matrix(0.008677625575057506,0,0,0.008677625575057506,100.21789776633914,0)" xlink:href="#S"/><use transform="matrix(0.008677625575057506,0,0,0.008677625575057506,115.32564389251426,0)" xlink:href="#I"/><use transform="matrix(0.008677625575057506,0,0,0.008677625575057506,126.38961650071258,0)" xlink:href="#K"/><use transform="matrix(0.008677625575057506,0,0,0.008677625575057506,133.08874344465698,0)" xlink:href="#T"/><use transform="matrix(0.008677625575057506,0,0,0.008677625575057506,146.42625395352036,0)" xlink:href="#B"/><use transform="matrix(0.008677625575057506,0,0,0.008677625575057506,156.74395076226375,0)" xlink:href="#C"/><use transform="matrix(0.008677625575057506,0,0,0.008677625575057506,172.9624329620462,0)" xlink:href="#D"/><use transform="matrix(0.008677625575057506,0,0,0.008677625575057506,183.54913616361634,0)" xlink:href="#U"/><use transform="matrix(0.008677625575057506,0,0,0.008677625575057506,195.18583205976842,0)" xlink:href="#D"/><use transform="matrix(0.008677625575057506,0,0,0.008677625575057506,205.7725352613386,0)" xlink:href="#N"/><use transform="matrix(0.008677625575057506,0,0,0.008677625575057506,213.2873590093384,0)" xlink:href="#V"/><use transform="matrix(0.008677625575057506,0,0,0.008677625575057506,223.6224110692319,0)" xlink:href="#D"/><use transform="matrix(0.008677625575057506,0,0,0.008677625575057506,234.20911427080205,0)" xlink:href="#N"/><use transform="matrix(0.008677625575057506,0,0,0.008677625575057506,241.44625400040002,0)" xlink:href="#P"/><use transform="matrix(0.008677625575057506,0,0,0.008677625575057506,247.38174989373934,0)" xlink:href="#P"/><use transform="matrix(0.008677625575057506,0,0,0.008677625575057506,253.31724578707866,0)" xlink:href="#Q"/><use transform="matrix(0.008677625575057506,0,0,0.008677625575057506,263.27048232166965,0)" xlink:href="#J"/><use transform="matrix(0.008677625575057506,0,0,0.008677625575057506,269.8654777587134,0)" xlink:href="#B"/><use transform="matrix(0.008677625575057506,0,0,0.008677625575057506,280.1831745674568,0)" xlink:href="#N"/><use transform="matrix(0.008677625575057506,0,0,0.008677625575057506,287.767419320057,0)" xlink:href="#J"/><use transform="matrix(0.008677625575057506,0,0,0.008677625575057506,294.2756385013502,0)" xlink:href="#L"/></g><path fill="#3a414a" d="M513 14c-232 0-385-159-385-421v-711h300v659c0 139 76 222 202 222 127 0 217-86 217-234v-647h301V0H864l-4-232C797-74 683 14 513 14" id="W"/><g id="h"><use transform="matrix(0.008677625575057506,0,0,0.008677625575057506,0,0)" xlink:href="#N"/><use transform="matrix(0.008677625575057506,0,0,0.008677625575057506,7.237139729597961,0)" xlink:href="#W"/><use transform="matrix(0.008677625575057506,0,0,0.008677625575057506,18.30111233779628,0)" xlink:href="#I"/><use transform="matrix(0.008677625575057506,0,0,0.008677625575057506,29.365084945994596,0)" xlink:href="#K"/><use transform="matrix(0.008677625575057506,0,0,0.008677625575057506,36.064211889938996,0)" xlink:href="#L"/></g><path fill="#3a414a" d="M628 22C291 22 81-210 81-554c0-346 210-578 547-578 336 0 547 232 547 578 0 344-211 576-547 576zm0-236c160 0 242-146 242-341 0-197-82-341-242-341S387-753 387-555c0 195 81 341 241 341" id="X"/><g id="i"><use transform="matrix(0.008677625575057506,0,0,0.008677625575057506,0,0)" xlink:href="#A"/><use transform="matrix(0.008677625575057506,0,0,0.008677625575057506,11.228847494124413,0)" xlink:href="#B"/><use transform="matrix(0.008677625575057506,0,0,0.008677625575057506,21.546544302867787,0)" xlink:href="#C"/><use transform="matrix(0.008677625575057506,0,0,0.008677625575057506,37.765026502650265,0)" xlink:href="#D"/><use transform="matrix(0.008677625575057506,0,0,0.008677625575057506,48.351729704220425,0)" xlink:href="#E"/><use transform="matrix(0.008677625575057506,0,0,0.008677625575057506,57.411170804580465,0)" xlink:href="#G"/><use transform="matrix(0.008677625575057506,0,0,0.008677625575057506,62.227252998737384,0)" xlink:href="#X"/><use transform="matrix(0.008677625575057506,0,0,0.008677625575057506,73.12635072100962,0)" xlink:href="#X"/><use transform="matrix(0.008677625575057506,0,0,0.008677625575057506,84.02544844328185,0)" xlink:href="#R"/><use transform="matrix(0.008677625575057506,0,0,0.008677625575057506,95.22826306068109,0)" xlink:href="#K"/><use transform="matrix(0.008677625575057506,0,0,0.008677625575057506,101.92739000462548,0)" xlink:href="#L"/></g><g id="j"><use transform="matrix(0.010850694444444444,0,0,0.010850694444444444,0,0)" xlink:href="#m"/><use transform="matrix(0.010850694444444444,0,0,0.010850694444444444,16.23263888888889,0)" xlink:href="#n"/><use transform="matrix(0.010850694444444444,0,0,0.010850694444444444,29.557291666666664,0)" xlink:href="#o"/><use transform="matrix(0.010850694444444444,0,0,0.010850694444444444,42.68663194444444,0)" xlink:href="#p"/><use transform="matrix(0.010850694444444444,0,0,0.010850694444444444,49.95659722222222,0)" xlink:href="#t"/><use transform="matrix(0.010850694444444444,0,0,0.010850694444444444,57.95355902777778,0)" xlink:href="#n"/><use transform="matrix(0.010850694444444444,0,0,0.010850694444444444,71.27821180555554,0)" xlink:href="#v"/><use transform="matrix(0.010850694444444444,0,0,0.010850694444444444,76.66015624999999,0)" xlink:href="#v"/><use transform="matrix(0.010850694444444444,0,0,0.010850694444444444,82.04210069444443,0)" xlink:href="#s"/><use transform="matrix(0.010850694444444444,0,0,0.010850694444444444,94.99782986111111,0)" xlink:href="#t"/></g><g id="k"><use transform="matrix(0.008677625575057506,0,0,0.008677625575057506,0,0)" xlink:href="#F"/><use transform="matrix(0.008677625575057506,0,0,0.008677625575057506,10.630091329445445,0)" xlink:href="#B"/><use transform="matrix(0.008677625575057506,0,0,0.008677625575057506,20.94778813818882,0)" xlink:href="#R"/><use transform="matrix(0.008677625575057506,0,0,0.008677625575057506,32.15060275558806,0)" xlink:href="#J"/><use transform="matrix(0.008677625575057506,0,0,0.008677625575057506,38.74559819263177,0)" xlink:href="#B"/><use transform="matrix(0.008677625575057506,0,0,0.008677625575057506,49.06329500137514,0)" xlink:href="#H"/><use transform="matrix(0.008677625575057506,0,0,0.008677625575057506,53.87937719553206,0)" xlink:href="#I"/><use transform="matrix(0.008677625575057506,0,0,0.008677625575057506,64.94334980373037,0)" xlink:href="#Q"/><use transform="matrix(0.008677625575057506,0,0,0.008677625575057506,74.89658633832133,0)" xlink:href="#E"/><use transform="matrix(0.008677625575057506,0,0,0.008677625575057506,83.3572712740024,0)" xlink:href="#X"/><use transform="matrix(0.008677625575057506,0,0,0.008677625575057506,94.25636899627463,0)" xlink:href="#N"/><use transform="matrix(0.008677625575057506,0,0,0.008677625575057506,101.05962744711971,0)" xlink:href="#O"/><use transform="matrix(0.008677625575057506,0,0,0.008677625575057506,112.26244206451895,0)" xlink:href="#D"/><use transform="matrix(0.008677625575057506,0,0,0.008677625575057506,122.8491452660891,0)" xlink:href="#N"/><use transform="matrix(0.008677625575057506,0,0,0.008677625575057506,130.08628499568707,0)" xlink:href="#Q"/><use transform="matrix(0.008677625575057506,0,0,0.008677625575057506,140.03952153027802,0)" xlink:href="#K"/><use transform="matrix(0.008677625575057506,0,0,0.008677625575057506,146.73864847422243,0)" xlink:href="#L"/></g><g id="l"><use transform="matrix(0.008677625575057506,0,0,0.008677625575057506,0,0)" xlink:href="#B"/><use transform="matrix(0.008677625575057506,0,0,0.008677625575057506,10.317696808743374,0)" xlink:href="#R"/><use transform="matrix(0.008677625575057506,0,0,0.008677625575057506,21.520511426142615,0)" xlink:href="#R"/><use transform="matrix(0.008677625575057506,0,0,0.008677625575057506,32.72332604354186,0)" xlink:href="#X"/><use transform="matrix(0.008677625575057506,0,0,0.008677625575057506,43.62242376581409,0)" xlink:href="#H"/><use transform="matrix(0.008677625575057506,0,0,0.008677625575057506,48.43850595997101,0)" xlink:href="#I"/><use transform="matrix(0.008677625575057506,0,0,0.008677625575057506,59.50247856816933,0)" xlink:href="#J"/><use transform="matrix(0.008677625575057506,0,0,0.008677625575057506,66.01069774946247,0)" xlink:href="#C"/><use transform="matrix(0.008677625575057506,0,0,0.008677625575057506,82.22917994924495,0)" xlink:href="#D"/><use transform="matrix(0.008677625575057506,0,0,0.008677625575057506,92.81588315081511,0)" xlink:href="#I"/><use transform="matrix(0.008677625575057506,0,0,0.008677625575057506,103.87985575901342,0)" xlink:href="#J"/></g></defs></g></svg>